<svg version="1.2" xmlns="http://www.w3.org/2000/svg" viewBox="0 0 8504 1417" width="8504" height="1417">
	<style>
		.s0 { fill: none;stroke: #ffffff;stroke-miterlimit:10;stroke-width: 5 } 
		.s1 { fill: #ffffff } 
	</style>
	<g id="Layer 1">
		<path id="PROGRAMAR ES PASIÓN" fill-rule="evenodd" class="s0" d="m2298.78 591.07h-44.78l63.37-253.49h66.97q17.27 0 31.75 5.92 14.58 5.56 25.35 16.05 11.01 10.45 16.9 24.5 6.06 13.81 6.06 30.5 0 19.08-8.03 35.98-7.53 16.75-21.41 29.85-13.66 12.75-31.82 20.28-17.75 7.11-37.96 7.11h-45.62zm53.37-213.35l-22.53 89.92h33.37q15.49 0 27.75-6.69 12.67-7.18 19.99-18.59 7.61-11.9 7.61-25.94 0-11.59-5.64-20.25-5.34-8.8-15.49-13.52-9.71-4.93-23.23-4.93zm154.74 213.35h-44.78l62.95-253.49h66.96q20.14 0 36.26 9.58 16.55 9.22 26.2 25.35 9.71 15.56 9.71 34.78 0 15.92-6.33 30.56-6.06 14.3-17.19 25.35-11.12 10.84-26.4 16.48l42.18 111.39h-47.74l-37.11-101.39h-39.43zm52.95-213.36l-18.17 73.52h32.32q12.68 0 23.03-5.5 10.42-5.91 16.33-15.21 6.48-9.64 6.48-20.98 0-9.58-4.79-16.48-4.43-7.39-12.95-11.26-8.03-4.09-19.23-4.09zm253.16 218.43q-25.2 0-46.68-8.73-21.41-9.02-37.46-24.79-15.97-15.98-25.07-37.18-8.87-21.33-8.87-45.84 0-29.01 11.97-55.27 12.2-26.48 32.95-47.04 20.92-20.84 47.32-32.67 26.97-12.11 56.4-12.11 25.26 0 46.69 9.01 21.49 8.73 37.46 24.79 16 15.91 24.78 37.46 9.16 20.98 9.16 45.48 0 28.8-11.97 55.35-11.96 26.4-32.96 47.04-20.82 20.56-47.6 32.67-26.63 11.83-56.12 11.83zm5-44.36q18.8 0 35.91-8.03 17.18-8.03 30.42-21.97 13.59-14.01 21.13-31.55 7.74-17.99 7.74-37.46 0-16.22-5.77-29.85-5.57-13.94-15.77-23.94-9.79-10.56-23.38-16.06-13.52-6.05-29.51-6.05-18.8 0-36.12 8.31-17.18 7.74-30.7 21.68-13.09 13.81-20.84 31.55-7.75 17.58-7.75 37.04 0 16.22 5.5 30.28 5.84 13.73 15.77 24.22 10.28 10.28 23.94 16.05 13.66 5.78 29.43 5.78zm293.51 44.36q-25.21 0-46.68-8.73-21.41-9.02-37.46-24.79-15.99-15.98-25.07-37.18-8.87-21.33-8.87-45.84 0-29.01 11.97-55.27 12.18-26.48 32.95-47.04 20.92-20.84 47.32-32.67 26.97-12.11 56.4-12.11 25.35 0 46.69 9.01 21.89 9.01 37.67 25l-23.73 49.15q-9.37-17.68-26.62-27.96-17.04-10.84-38.8-10.84-18.8 0-36.12 8.31-17.18 7.74-30.7 21.68-13.1 13.81-20.84 31.55-7.75 17.67-7.75 37.04 0 16.12 5.5 30.28 5.84 13.73 15.77 24.22 10.28 10.28 23.94 16.05 13.66 5.78 29.43 5.78 10.7 0 20.7-2.68 10.07-2.75 18.87-7.53l12.61-51.9h-56.12l9.58-38.87h98.5l-29.15 120.13q-17.74 12.04-38.23 18.73-20.14 6.48-41.76 6.48zm170.05-5.07h-44.79l62.95-253.49h66.97q20.13 0 36.26 9.57 16.55 9.23 26.19 25.35 9.72 15.56 9.72 34.79 0 15.91-6.34 30.56-6.05 14.29-17.18 25.35-11.12 10.84-26.4 16.47l42.18 111.4h-47.75l-37.1-101.4h-39.44zm52.96-213.35l-18.17 73.51h32.32q12.67 0 23.02-5.49 10.43-5.92 16.34-15.21 6.48-9.65 6.48-20.98 0-9.58-4.79-16.48-4.44-7.39-12.96-11.27-8.02-4.08-19.22-4.08zm147.41 213.35h-47.88l175.33-262.36h0.57l46.05 262.36h-43.94l-8.59-52.6h-86.82zm80.27-121.67l-20.98 31.97h55.9l-5.28-31.97q-1.76-10.21-3.31-19.72-1.12-9.71-1.41-22.67-6.26 12.75-12.39 22.67-5.63 9.44-12.53 19.72zm169.85 121.67h-43.1l63.59-255.18h0.56l78.37 146.46 161.32-159.98h0.56l-66.96 268.7h-44.78l22.74-90.55q2.96-11.26 6.41-24.64 3.87-13.59 9.29-31.05-10.35 12.95-19.71 22.6-8.95 9.15-17.11 17.46l-67.6 67.95-27.11-54.43q-4.86-10.07-11.83-23.66-6.48-13.8-11.55-29.92-2.6 22.32-6.48 39.21-3.73 16.34-7.25 30zm275.52 0h-47.89l175.34-262.36h0.56l46.05 262.36h-43.94l-8.59-52.6h-86.82zm80.27-121.67l-20.98 31.97h55.91l-5.28-31.97q-1.77-10.21-3.31-19.72-1.13-9.71-1.41-22.67-6.27 12.75-12.4 22.67-5.63 9.44-12.53 19.72zm172.81 121.67h-44.79l62.95-253.49h66.97q20.14 0 36.26 9.58 16.55 9.23 26.2 25.35 9.71 15.56 9.71 34.78 0 15.92-6.33 30.56-6.06 14.3-17.19 25.35-11.12 10.85-26.4 16.48l42.18 111.39h-47.74l-37.11-101.39h-39.43zm52.95-213.35l-18.17 73.51h32.32q12.67 0 23.03-5.5 10.42-5.91 16.33-15.2 6.48-9.65 6.48-20.99 0-9.57-4.79-16.47-4.43-7.4-12.95-11.27-8.03-4.08-19.23-4.08zm341.9 213.35h-132.66l63.38-253.49h132.66l-10 40.14h-87.88l-10.56 42.67h68.16l-9.58 38.86h-68.37l-22.81 90.42h87.87zm118.85 4.64q-15.56 0-30.63-4.64-15.06-5.22-27.6-13.81-12.25-9.15-19.78-20.63l25.13-49.64q3.52 13.17 12.11 24.08 9.02 10.63 20.56 17.18 11.76 6.13 24.09 6.13 10.77 0 19.57-4.72 9.01-4.93 14.08-12.67 5.64-8.24 5.64-17.89 0-5.91-2.26-10.84-2.11-5.49-6.76-10.42-4.15-5.49-11.12-10.78l-25.63-20.27q-12.39-10-20.42-18.52-7.54-9.09-11.27-18.31-3.17-9.3-3.17-20.21 0-16.05 6.27-29.93 6.41-13.94 17.46-24.22 11.48-10.7 26.2-16.62 15.14-6.05 32.32-6.05 20.49 0 40.06 8.31 19.65 8.31 32.6 22.53l-24.29 48.73q-5.21-11.55-13.94-20-8.17-8.94-18.59-13.8-9.86-5-20.35-5-9.15 0-16.83 4.15-7.11 3.73-11.55 10.42-4.15 6.55-4.15 15.14 0 4.86 1.9 9.37 1.97 4.08 5.92 8.73 4.08 4.22 10.7 9.22l25.98 19.65q9.37 6.97 15.98 14.22 7.05 6.83 11.27 14.37 4.51 7.18 6.48 15.49 2.32 7.81 2.32 16.97 0 22.88-12.18 42.18-11.83 19.15-31.83 30.7-19.99 11.4-44.29 11.4zm241.04-4.64h-44.78l63.37-253.49h66.96q17.28 0 31.76 5.91 14.58 5.56 25.35 16.05 11.01 10.46 16.9 24.51 6.05 13.8 6.05 30.49 0 19.08-8.02 35.98-7.54 16.76-21.41 29.85-13.66 12.75-31.83 20.28-17.74 7.12-37.95 7.12h-45.63zm53.38-213.36l-22.54 89.92h33.38q15.49 0 27.74-6.69 12.68-7.18 20-18.59 7.61-11.9 7.61-25.93 0-11.6-5.64-20.26-5.34-8.8-15.49-13.52-9.72-4.93-23.23-4.93zm114.18 213.36h-47.88l175.33-262.37h0.57l46.05 262.37h-43.94l-8.59-52.6h-86.82zm80.27-121.68l-20.98 31.97h55.9l-5.28-31.97q-1.76-10.21-3.31-19.71-1.12-9.72-1.4-22.68-6.27 12.75-12.4 22.68-5.63 9.43-12.53 19.71zm200.62 126.33q-15.56 0-30.63-4.65-15.07-5.21-27.6-13.8-12.26-9.16-19.79-20.63l25.14-49.65q3.52 13.17 12.11 24.09 9.01 10.63 20.56 17.18 11.76 6.12 24.08 6.12 10.77 0 19.58-4.72 9.01-4.92 14.08-12.67 5.63-8.24 5.63-17.89 0-5.91-2.25-10.84-2.11-5.49-6.76-10.42-4.16-5.49-11.13-10.77l-25.63-20.28q-12.39-10-20.42-18.52-7.53-9.08-11.26-18.31-3.17-9.29-3.17-20.21 0-16.05 6.27-29.92 6.4-13.95 17.46-24.23 11.48-10.7 26.19-16.61 15.14-6.06 32.32-6.06 20.49 0 40.07 8.31 19.64 8.31 32.6 22.53l-24.29 48.73q-5.21-11.55-13.95-20-8.16-8.94-18.58-13.8-9.86-5-20.35-5-9.16 0-16.83 4.15-7.12 3.74-11.55 10.43-4.16 6.54-4.16 15.14 0 4.85 1.91 9.36 1.97 4.08 5.91 8.73 4.08 4.23 10.7 9.23l25.99 19.64q9.36 6.97 15.98 14.22 7.04 6.83 11.27 14.37 4.5 7.18 6.47 15.49 2.33 7.82 2.33 16.97 0 22.88-12.18 42.18-11.83 19.15-31.83 30.7-20 11.41-44.29 11.41zm161.32-4.65h-47.32l63.38-253.49h47.32zm197.27 5.07q-25.2 0-46.68-8.73-21.41-9.02-37.46-24.79-15.97-15.98-25.07-37.18-8.87-21.33-8.87-45.84 0-29.01 11.97-55.27 12.2-26.48 32.95-47.04 20.92-20.84 47.32-32.67 26.97-12.11 56.4-12.11 25.27 0 46.69 9.01 21.49 8.73 37.46 24.79 16 15.91 24.78 37.46 9.16 20.98 9.16 45.48 0 28.8-11.97 55.35-11.96 26.41-32.96 47.04-20.82 20.56-47.6 32.67-26.63 11.83-56.12 11.83zm5-44.36q18.8 0 35.91-8.03 17.19-8.03 30.42-21.97 13.59-14.01 21.13-31.54 7.74-18 7.74-37.46 0-16.23-5.77-29.86-5.56-13.94-15.77-23.94-9.79-10.56-23.38-16.05-13.52-6.06-29.5-6.06-18.8 0-36.13 8.31-17.18 7.74-30.7 21.69-13.09 13.8-20.84 31.54-7.74 17.58-7.74 37.04 0 16.22 5.49 30.28 5.84 13.73 15.77 24.22 10.28 10.28 23.94 16.05 13.66 5.78 29.43 5.78zm68.23-237.02h-45.2l55.91-55.76h59.15zm288.44 284.75h-0.57l-116.11-168.43-39.78 159.98h-43.1l65.35-261.94h0.56l116.11 168.22 39.79-159.77h43.09z"/>
		<path id="PROGRAMAR ES PASIÓN copy" fill-rule="evenodd" class="s1" d="m2298.78 868.49h-44.78l63.37-253.49h66.97q17.27 0 31.75 5.92 14.58 5.56 25.35 16.05 11.01 10.45 16.9 24.5 6.06 13.81 6.06 30.5 0 19.08-8.03 35.97-7.53 16.76-21.41 29.86-13.66 12.75-31.82 20.28-17.75 7.11-37.96 7.11h-45.62zm53.37-213.35l-22.53 89.92h33.37q15.49 0 27.75-6.69 12.67-7.19 19.99-18.59 7.61-11.9 7.61-25.94 0-11.59-5.64-20.25-5.34-8.8-15.49-13.52-9.71-4.93-23.23-4.93zm154.74 213.35h-44.78l62.95-253.49h66.96q20.14 0 36.26 9.58 16.55 9.22 26.2 25.35 9.71 15.56 9.71 34.78 0 15.92-6.33 30.56-6.06 14.3-17.19 25.35-11.12 10.84-26.4 16.48l42.18 111.39h-47.74l-37.11-101.39h-39.43zm52.95-213.36l-18.17 73.51h32.32q12.68 0 23.03-5.49 10.42-5.91 16.33-15.21 6.48-9.64 6.48-20.98 0-9.58-4.79-16.48-4.43-7.39-12.95-11.26-8.03-4.09-19.23-4.09zm253.16 218.43q-25.2 0-46.68-8.74-21.41-9.01-37.46-24.78-15.97-15.99-25.07-37.18-8.87-21.34-8.87-45.84 0-29.01 11.97-55.27 12.2-26.48 32.95-47.04 20.92-20.84 47.32-32.67 26.97-12.11 56.4-12.11 25.26 0 46.69 9.01 21.49 8.73 37.46 24.79 16 15.91 24.78 37.46 9.16 20.98 9.16 45.48 0 28.8-11.97 55.35-11.96 26.4-32.96 47.03-20.82 20.57-47.6 32.68-26.63 11.83-56.12 11.83zm5-44.37q18.8 0 35.91-8.02 17.18-8.03 30.42-21.97 13.59-14.01 21.13-31.55 7.74-18 7.74-37.46 0-16.22-5.77-29.85-5.57-13.94-15.77-23.94-9.79-10.56-23.38-16.06-13.52-6.05-29.51-6.05-18.8 0-36.12 8.31-17.18 7.74-30.7 21.68-13.09 13.8-20.84 31.55-7.75 17.57-7.75 37.04 0 16.22 5.5 30.27 5.84 13.73 15.77 24.23 10.28 10.28 23.94 16.05 13.66 5.77 29.43 5.77zm293.51 44.37q-25.21 0-46.68-8.74-21.41-9.01-37.46-24.78-15.99-15.99-25.07-37.18-8.87-21.34-8.87-45.84 0-29.01 11.97-55.27 12.18-26.48 32.95-47.04 20.92-20.84 47.32-32.67 26.97-12.11 56.4-12.11 25.35 0 46.69 9.01 21.89 9.01 37.67 25l-23.73 49.15q-9.37-17.68-26.62-27.96-17.04-10.84-38.8-10.84-18.8 0-36.12 8.31-17.18 7.74-30.7 21.68-13.1 13.8-20.84 31.55-7.75 17.67-7.75 37.04 0 16.12 5.5 30.27 5.84 13.73 15.77 24.23 10.28 10.28 23.94 16.05 13.66 5.77 29.43 5.77 10.7 0 20.7-2.67 10.07-2.75 18.87-7.54l12.61-51.89h-56.12l9.58-38.87h98.5l-29.15 120.13q-17.74 12.04-38.23 18.73-20.14 6.48-41.76 6.48zm170.05-5.07h-44.79l62.95-253.49h66.97q20.13 0 36.26 9.57 16.55 9.23 26.19 25.35 9.72 15.56 9.72 34.79 0 15.91-6.34 30.56-6.05 14.29-17.18 25.34-11.12 10.85-26.4 16.48l42.18 111.4h-47.75l-37.1-101.4h-39.44zm52.96-213.35l-18.17 73.51h32.32q12.67 0 23.02-5.49 10.43-5.92 16.34-15.21 6.48-9.65 6.48-20.99 0-9.57-4.79-16.47-4.44-7.4-12.96-11.27-8.02-4.08-19.22-4.08zm147.41 213.35h-47.88l175.33-262.36h0.57l46.05 262.36h-43.94l-8.59-52.6h-86.82zm80.27-121.67l-20.98 31.97h55.9l-5.28-31.97q-1.76-10.21-3.31-19.72-1.12-9.71-1.41-22.67-6.26 12.74-12.39 22.67-5.63 9.44-12.53 19.72zm169.85 121.67h-43.1l63.59-255.18h0.56l78.37 146.46 161.32-159.98h0.56l-66.96 268.7h-44.78l22.74-90.55q2.96-11.26 6.41-24.64 3.87-13.59 9.29-31.06-10.35 12.96-19.71 22.61-8.95 9.15-17.11 17.46l-67.6 67.95-27.11-54.43q-4.86-10.07-11.83-23.66-6.48-13.8-11.55-29.93-2.6 22.33-6.48 39.22-3.73 16.34-7.25 30zm275.52 0h-47.89l175.34-262.36h0.56l46.05 262.36h-43.94l-8.59-52.6h-86.82zm80.27-121.67l-20.98 31.97h55.91l-5.28-31.97q-1.77-10.21-3.31-19.72-1.13-9.71-1.41-22.67-6.27 12.75-12.4 22.67-5.63 9.44-12.53 19.72zm172.81 121.67h-44.79l62.95-253.49h66.97q20.14 0 36.26 9.58 16.55 9.22 26.2 25.35 9.71 15.56 9.71 34.78 0 15.92-6.33 30.56-6.06 14.3-17.19 25.35-11.12 10.85-26.4 16.48l42.18 111.39h-47.74l-37.11-101.39h-39.43zm52.95-213.36l-18.17 73.52h32.32q12.67 0 23.03-5.5 10.42-5.91 16.33-15.21 6.48-9.64 6.48-20.98 0-9.57-4.79-16.48-4.43-7.39-12.95-11.26-8.03-4.09-19.23-4.09zm341.9 213.36h-132.66l63.38-253.49h132.66l-10 40.13h-87.88l-10.56 42.67h68.16l-9.58 38.87h-68.37l-22.81 90.41h87.87zm118.85 4.65q-15.56 0-30.63-4.65-15.06-5.21-27.6-13.8-12.25-9.15-19.78-20.63l25.13-49.64q3.52 13.17 12.11 24.08 9.02 10.63 20.56 17.18 11.76 6.13 24.09 6.13 10.77 0 19.57-4.72 9.01-4.93 14.08-12.67 5.64-8.24 5.64-17.89 0-5.91-2.26-10.84-2.11-5.49-6.76-10.42-4.15-5.5-11.12-10.78l-25.63-20.28q-12.39-9.99-20.42-18.52-7.54-9.08-11.27-18.3-3.17-9.3-3.17-20.21 0-16.06 6.27-29.93 6.41-13.94 17.46-24.22 11.48-10.7 26.2-16.62 15.14-6.05 32.32-6.05 20.49 0 40.06 8.31 19.65 8.3 32.6 22.53l-24.29 48.73q-5.21-11.55-13.94-20-8.17-8.94-18.59-13.8-9.86-5-20.35-5-9.15 0-16.83 4.15-7.11 3.73-11.55 10.42-4.15 6.55-4.15 15.14 0 4.86 1.9 9.37 1.97 4.08 5.92 8.73 4.08 4.22 10.7 9.22l25.98 19.65q9.37 6.97 15.98 14.22 7.05 6.83 11.27 14.37 4.51 7.18 6.48 15.49 2.32 7.81 2.32 16.97 0 22.88-12.18 42.17-11.83 19.16-31.83 30.7-19.99 11.41-44.29 11.41zm241.04-4.65h-44.78l63.37-253.49h66.96q17.28 0 31.76 5.92 14.58 5.56 25.35 16.05 11.01 10.46 16.9 24.51 6.05 13.8 6.05 30.49 0 19.08-8.02 35.98-7.54 16.76-21.41 29.85-13.66 12.75-31.83 20.28-17.74 7.11-37.95 7.11h-45.63zm53.38-213.35l-22.54 89.92h33.38q15.49 0 27.74-6.69 12.68-7.18 20-18.59 7.61-11.9 7.61-25.94 0-11.59-5.64-20.25-5.34-8.8-15.49-13.52-9.72-4.93-23.23-4.93zm114.18 213.35h-47.88l175.33-262.36h0.57l46.05 262.36h-43.94l-8.59-52.59h-86.82zm80.27-121.68l-20.98 31.97h55.9l-5.28-31.97q-1.76-10.21-3.31-19.71-1.12-9.72-1.4-22.68-6.27 12.75-12.4 22.68-5.63 9.43-12.53 19.71zm200.62 126.32q-15.56 0-30.63-4.64-15.07-5.21-27.6-13.8-12.26-9.16-19.79-20.64l25.14-49.64q3.52 13.17 12.11 24.08 9.01 10.64 20.56 17.19 11.76 6.12 24.08 6.12 10.77 0 19.58-4.72 9.01-4.93 14.08-12.67 5.63-8.24 5.63-17.89 0-5.91-2.25-10.84-2.11-5.49-6.76-10.42-4.16-5.49-11.13-10.77l-25.63-20.28q-12.39-10-20.42-18.52-7.53-9.09-11.26-18.31-3.17-9.29-3.17-20.21 0-16.05 6.27-29.92 6.4-13.95 17.46-24.23 11.48-10.7 26.19-16.61 15.14-6.06 32.32-6.06 20.49 0 40.07 8.31 19.64 8.31 32.6 22.53l-24.29 48.73q-5.21-11.55-13.95-20-8.16-8.94-18.58-13.8-9.86-5-20.35-5-9.16 0-16.83 4.15-7.12 3.74-11.55 10.43-4.16 6.54-4.16 15.13 0 4.86 1.91 9.37 1.97 4.08 5.91 8.73 4.08 4.23 10.7 9.22l25.99 19.65q9.36 6.97 15.98 14.22 7.04 6.83 11.27 14.37 4.5 7.18 6.47 15.49 2.33 7.81 2.33 16.97 0 22.88-12.18 42.18-11.83 19.15-31.83 30.7-20 11.4-44.29 11.4zm161.32-4.64h-47.32l63.38-253.49h47.32zm197.27 5.07q-25.2 0-46.68-8.73-21.41-9.02-37.46-24.79-15.97-15.98-25.07-37.18-8.87-21.33-8.87-45.84 0-29.01 11.97-55.27 12.2-26.48 32.95-47.04 20.92-20.84 47.32-32.67 26.97-12.11 56.4-12.11 25.27 0 46.69 9.01 21.49 8.73 37.46 24.79 16 15.91 24.78 37.46 9.16 20.98 9.16 45.48 0 28.8-11.97 55.35-11.96 26.4-32.96 47.04-20.82 20.56-47.6 32.67-26.63 11.83-56.12 11.83zm5-44.36q18.8 0 35.91-8.03 17.19-8.03 30.42-21.97 13.59-14.01 21.13-31.55 7.74-17.99 7.74-37.46 0-16.22-5.77-29.85-5.56-13.94-15.77-23.94-9.79-10.56-23.38-16.06-13.52-6.05-29.5-6.05-18.8 0-36.13 8.31-17.18 7.74-30.7 21.68-13.09 13.81-20.84 31.55-7.74 17.58-7.74 37.04 0 16.22 5.49 30.28 5.84 13.73 15.77 24.22 10.28 10.28 23.94 16.05 13.66 5.78 29.43 5.78zm68.23-237.02h-45.2l55.91-55.76h59.15zm288.44 284.75h-0.57l-116.11-168.43-39.78 159.98h-43.1l65.35-261.94h0.56l116.11 168.22 39.79-159.77h43.09z"/>
		<path id="PROGRAMAR ES PASIÓN copy 2" fill-rule="evenodd" class="s0" d="m2298.78 1148.34h-44.78l63.37-253.49h66.97q17.27 0 31.75 5.92 14.58 5.56 25.35 16.05 11.01 10.45 16.9 24.51 6.06 13.8 6.06 30.49 0 19.08-8.03 35.98-7.53 16.76-21.41 29.85-13.66 12.75-31.82 20.28-17.75 7.11-37.96 7.11h-45.62zm53.37-213.35l-22.53 89.92h33.37q15.49 0 27.75-6.69 12.67-7.18 19.99-18.59 7.61-11.9 7.61-25.94 0-11.59-5.64-20.25-5.34-8.8-15.49-13.52-9.71-4.93-23.23-4.93zm154.74 213.35h-44.78l62.95-253.49h66.96q20.14 0 36.26 9.58 16.55 9.22 26.2 25.35 9.71 15.56 9.71 34.78 0 15.92-6.33 30.56-6.06 14.3-17.19 25.35-11.12 10.85-26.4 16.48l42.18 111.39h-47.74l-37.11-101.39h-39.43zm52.95-213.35l-18.17 73.51h32.32q12.68 0 23.03-5.5 10.42-5.91 16.33-15.2 6.48-9.65 6.48-20.99 0-9.57-4.79-16.48-4.43-7.39-12.95-11.26-8.03-4.08-19.23-4.08zm253.16 218.42q-25.2 0-46.68-8.73-21.41-9.02-37.46-24.79-15.97-15.98-25.07-37.18-8.87-21.33-8.87-45.84 0-29.01 11.97-55.27 12.2-26.48 32.95-47.04 20.92-20.84 47.32-32.67 26.97-12.11 56.4-12.11 25.26 0 46.69 9.01 21.49 8.73 37.46 24.79 16 15.91 24.78 37.46 9.16 20.98 9.16 45.49 0 28.79-11.97 55.34-11.96 26.41-32.96 47.04-20.82 20.56-47.6 32.67-26.63 11.83-56.12 11.83zm5-44.36q18.8 0 35.91-8.03 17.18-8.03 30.42-21.97 13.59-14.01 21.13-31.54 7.74-18 7.74-37.46 0-16.23-5.77-29.86-5.57-13.94-15.77-23.94-9.79-10.56-23.38-16.05-13.52-6.06-29.51-6.06-18.8 0-36.12 8.31-17.18 7.74-30.7 21.69-13.09 13.8-20.84 31.54-7.75 17.58-7.75 37.04 0 16.22 5.5 30.28 5.84 13.73 15.77 24.22 10.28 10.28 23.94 16.05 13.66 5.78 29.43 5.78zm293.51 44.36q-25.21 0-46.68-8.73-21.41-9.02-37.46-24.79-15.99-15.98-25.07-37.18-8.87-21.33-8.87-45.84 0-29.01 11.97-55.27 12.18-26.48 32.95-47.04 20.92-20.84 47.32-32.67 26.97-12.11 56.4-12.11 25.35 0 46.69 9.01 21.89 9.01 37.67 25l-23.73 49.15q-9.37-17.68-26.62-27.96-17.04-10.84-38.8-10.84-18.8 0-36.12 8.31-17.18 7.74-30.7 21.69-13.1 13.8-20.84 31.54-7.75 17.68-7.75 37.04 0 16.12 5.5 30.28 5.84 13.73 15.77 24.22 10.28 10.28 23.94 16.05 13.66 5.78 29.43 5.78 10.7 0 20.7-2.68 10.07-2.74 18.87-7.53l12.61-51.9h-56.12l9.58-38.87h98.5l-29.15 120.13q-17.74 12.04-38.23 18.73-20.14 6.48-41.76 6.48zm170.05-5.07h-44.79l62.95-253.49h66.97q20.13 0 36.26 9.58 16.55 9.22 26.19 25.34 9.72 15.57 9.72 34.79 0 15.91-6.34 30.56-6.05 14.29-17.18 25.35-11.12 10.84-26.4 16.47l42.18 111.4h-47.75l-37.1-101.4h-39.44zm52.96-213.35l-18.17 73.51h32.32q12.67 0 23.02-5.49 10.43-5.92 16.34-15.21 6.48-9.65 6.48-20.98 0-9.58-4.79-16.48-4.44-7.39-12.96-11.27-8.02-4.08-19.22-4.08zm147.41 213.35h-47.88l175.33-262.36h0.57l46.05 262.36h-43.94l-8.59-52.59h-86.82zm80.27-121.68l-20.98 31.97h55.9l-5.28-31.97q-1.76-10.21-3.31-19.72-1.12-9.71-1.41-22.67-6.26 12.75-12.39 22.67-5.63 9.44-12.53 19.72zm169.85 121.68h-43.1l63.59-255.18h0.56l78.37 146.46 161.32-159.98h0.56l-66.96 268.7h-44.78l22.74-90.56q2.96-11.26 6.41-24.64 3.87-13.59 9.29-31.05-10.35 12.95-19.71 22.6-8.95 9.15-17.11 17.46l-67.6 67.95-27.11-54.43q-4.86-10.07-11.83-23.66-6.48-13.8-11.55-29.92-2.6 22.32-6.48 39.22-3.73 16.33-7.25 29.99zm275.52 0h-47.89l175.34-262.36h0.56l46.05 262.36h-43.94l-8.59-52.59h-86.82zm80.27-121.68l-20.98 31.97h55.91l-5.28-31.97q-1.77-10.21-3.31-19.72-1.13-9.71-1.41-22.67-6.27 12.75-12.4 22.67-5.63 9.44-12.53 19.72zm172.81 121.68h-44.79l62.95-253.49h66.97q20.14 0 36.26 9.57 16.55 9.23 26.2 25.35 9.71 15.56 9.71 34.79 0 15.91-6.33 30.56-6.06 14.29-17.19 25.34-11.12 10.85-26.4 16.48l42.18 111.4h-47.74l-37.11-101.4h-39.43zm52.95-213.35l-18.17 73.51h32.32q12.67 0 23.03-5.49 10.42-5.92 16.33-15.21 6.48-9.65 6.48-20.99 0-9.57-4.79-16.47-4.43-7.4-12.95-11.27-8.03-4.08-19.23-4.08zm341.9 213.35h-132.66l63.38-253.49h132.66l-10 40.14h-87.88l-10.56 42.67h68.16l-9.58 38.87h-68.37l-22.81 90.41h87.87zm118.85 4.64q-15.56 0-30.63-4.64-15.06-5.21-27.6-13.8-12.25-9.16-19.78-20.64l25.13-49.64q3.52 13.17 12.11 24.08 9.02 10.64 20.56 17.18 11.76 6.13 24.09 6.13 10.77 0 19.57-4.72 9.01-4.93 14.08-12.67 5.64-8.24 5.64-17.89 0-5.91-2.26-10.84-2.11-5.49-6.76-10.42-4.15-5.49-11.12-10.77l-25.63-20.28q-12.39-10-20.42-18.52-7.54-9.09-11.27-18.31-3.17-9.29-3.17-20.21 0-16.05 6.27-29.92 6.41-13.95 17.46-24.23 11.48-10.7 26.2-16.61 15.14-6.06 32.32-6.06 20.49 0 40.06 8.31 19.65 8.31 32.6 22.53l-24.29 48.73q-5.21-11.55-13.94-20-8.17-8.94-18.59-13.8-9.86-5-20.35-5-9.15 0-16.83 4.15-7.11 3.74-11.55 10.42-4.15 6.55-4.15 15.14 0 4.86 1.9 9.37 1.97 4.08 5.92 8.73 4.08 4.22 10.7 9.22l25.98 19.65q9.37 6.97 15.98 14.22 7.05 6.83 11.27 14.37 4.51 7.18 6.48 15.49 2.32 7.81 2.32 16.97 0 22.88-12.18 42.18-11.83 19.15-31.83 30.7-19.99 11.4-44.29 11.4zm241.04-4.64h-44.78l63.37-253.49h66.96q17.28 0 31.76 5.91 14.58 5.56 25.35 16.06 11.01 10.45 16.9 24.5 6.05 13.8 6.05 30.5 0 19.07-8.02 35.97-7.54 16.76-21.41 29.86-13.66 12.74-31.83 20.28-17.74 7.11-37.95 7.11h-45.63zm53.38-213.36l-22.54 89.92h33.38q15.49 0 27.74-6.69 12.68-7.18 20-18.59 7.61-11.89 7.61-25.93 0-11.6-5.64-20.26-5.34-8.8-15.49-13.52-9.72-4.93-23.23-4.93zm114.18 213.36h-47.88l175.33-262.36h0.57l46.05 262.36h-43.94l-8.59-52.6h-86.82zm80.27-121.67l-20.98 31.96h55.9l-5.28-31.96q-1.76-10.21-3.31-19.72-1.12-9.72-1.4-22.67-6.27 12.74-12.4 22.67-5.63 9.43-12.53 19.72zm200.62 126.32q-15.56 0-30.63-4.65-15.07-5.21-27.6-13.8-12.26-9.16-19.79-20.63l25.14-49.65q3.52 13.17 12.11 24.09 9.01 10.63 20.56 17.18 11.76 6.12 24.08 6.12 10.77 0 19.58-4.71 9.01-4.93 14.08-12.68 5.63-8.24 5.63-17.88 0-5.92-2.25-10.85-2.11-5.49-6.76-10.42-4.16-5.49-11.13-10.77l-25.63-20.28q-12.39-10-20.42-18.52-7.53-9.08-11.26-18.31-3.17-9.29-3.17-20.21 0-16.05 6.27-29.92 6.4-13.94 17.46-24.22 11.48-10.71 26.19-16.62 15.14-6.06 32.32-6.06 20.49 0 40.07 8.31 19.64 8.31 32.6 22.53l-24.29 48.73q-5.21-11.55-13.95-20-8.16-8.94-18.58-13.8-9.86-5-20.35-5-9.16 0-16.83 4.16-7.12 3.73-11.55 10.42-4.16 6.55-4.16 15.14 0 4.86 1.91 9.36 1.97 4.09 5.91 8.73 4.08 4.23 10.7 9.23l25.99 19.64q9.36 6.97 15.98 14.23 7.04 6.83 11.27 14.36 4.5 7.18 6.47 15.49 2.33 7.82 2.33 16.97 0 22.89-12.18 42.18-11.83 19.15-31.83 30.7-20 11.41-44.29 11.41zm161.32-4.65h-47.32l63.38-253.49h47.32zm197.27 5.07q-25.2 0-46.68-8.73-21.41-9.01-37.46-24.79-15.97-15.98-25.07-37.18-8.87-21.33-8.87-45.84 0-29.01 11.97-55.27 12.2-26.48 32.95-47.04 20.92-20.84 47.32-32.67 26.97-12.11 56.4-12.11 25.27 0 46.69 9.01 21.49 8.73 37.46 24.79 16 15.91 24.78 37.46 9.16 20.98 9.16 45.49 0 28.8-11.97 55.34-11.96 26.41-32.96 47.04-20.82 20.56-47.6 32.67-26.63 11.83-56.12 11.83zm5-44.36q18.8 0 35.91-8.03 17.19-8.03 30.42-21.97 13.59-14.01 21.13-31.54 7.74-18 7.74-37.46 0-16.23-5.77-29.86-5.56-13.94-15.77-23.94-9.79-10.56-23.38-16.05-13.52-6.06-29.5-6.06-18.8 0-36.13 8.31-17.18 7.75-30.7 21.69-13.09 13.8-20.84 31.54-7.74 17.58-7.74 37.04 0 16.22 5.49 30.28 5.84 13.73 15.77 24.22 10.28 10.28 23.94 16.05 13.66 5.78 29.43 5.78zm68.23-237.01h-45.2l55.91-55.77h59.15zm288.44 284.75h-0.57l-116.11-168.43-39.78 159.98h-43.1l65.35-261.94h0.56l116.11 168.22 39.79-159.77h43.09z"/>
	</g>
</svg>